<svg width="198" height="54" viewBox="0 0 198 54" fill="none" xmlns="http://www.w3.org/2000/svg">
<path d="M66.9527 8.3411L66.5605 8.79693C66.3531 8.61654 66.089 8.51557 65.8147 8.51181C65.2562 8.51181 64.8272 8.92012 64.8272 10.0131C64.8272 11.069 65.2457 11.5108 65.8147 11.5108C66.1188 11.5018 66.4104 11.3867 66.6393 11.1852L67 11.641C66.8407 11.7992 66.6517 11.9241 66.444 12.0084C66.2364 12.0927 66.0141 12.1347 65.7902 12.132C64.7397 12.132 64.0219 11.3893 64.0219 10.0201C64.0219 8.65085 64.7887 7.92223 65.7727 7.92223C66.2048 7.90505 66.6271 8.05494 66.9527 8.3411Z" fill="#D7B353"/>
<path d="M72.4748 10.0201C72.4748 11.3524 71.7937 12.1321 70.724 12.1321C69.6543 12.1321 68.9609 11.3771 68.9609 10.0201C68.9609 8.66322 69.6473 7.9082 70.724 7.9082C71.8008 7.9082 72.4748 8.6685 72.4748 10.0201ZM69.7646 10.0201C69.7646 11.1078 70.1305 11.5337 70.7188 11.5337C71.307 11.5337 71.6659 11.1078 71.6659 10.0149C71.6659 8.92194 71.3158 8.49955 70.7188 8.49955C70.1217 8.49955 69.7646 8.93778 69.7646 10.0254V10.0201Z" fill="#D7B353"/>
<path d="M77.9095 12.0423H76.9151L75.5372 8.77403C75.6051 9.31106 75.6396 9.85184 75.6405 10.3932V12.0423H74.9402V8.00317H75.9101L77.3108 11.2767C77.244 10.8198 77.2089 10.3587 77.2057 9.89688V8.00317H77.906L77.9095 12.0423Z" fill="#D7B353"/>
<path d="M83.3091 8.3411L82.9186 8.79692C82.7118 8.61666 82.4483 8.51568 82.1745 8.51181C81.616 8.51181 81.1853 8.92012 81.1853 10.0131C81.1853 11.069 81.6055 11.5108 82.1745 11.5108C82.4774 11.5007 82.7675 11.3857 82.9957 11.1852L83.3546 11.641C83.1958 11.7994 83.0071 11.9244 82.7997 12.0087C82.5923 12.093 82.3702 12.1349 82.1465 12.132C81.1048 12.132 80.3782 11.3893 80.3782 10.0201C80.3782 8.65085 81.145 7.92223 82.129 7.92223C82.5612 7.90505 82.9835 8.05494 83.3091 8.3411Z" fill="#D7B353"/>
<path d="M88.8311 10.0201C88.8311 11.3524 88.1501 12.1321 87.0803 12.1321C86.0105 12.1321 85.319 11.3771 85.319 10.0201C85.319 8.66322 86.0053 7.9082 87.0803 7.9082C88.1553 7.9082 88.8311 8.6685 88.8311 10.0201ZM86.1208 10.0201C86.1208 11.1078 86.4868 11.5337 87.0733 11.5337C87.6598 11.5337 88.0222 11.1078 88.0222 10.0149C88.0222 8.92194 87.6721 8.49955 87.0733 8.49955C86.4745 8.49955 86.1208 8.93778 86.1208 10.0254V10.0201Z" fill="#D7B353"/>
<path d="M92.5551 10.4231H92.0667V12.0423H91.2998V8.00317H92.4974C93.5479 8.00317 94.0906 8.3886 94.0906 9.18938C94.0906 9.73849 93.8227 10.0694 93.2765 10.2823L94.327 12.0423H93.4428L92.5551 10.4231ZM92.0667 9.86696H92.5429C93.0209 9.86696 93.2887 9.67513 93.2887 9.18938C93.2887 8.75115 93.0384 8.56284 92.4798 8.56284H92.0667V9.86696Z" fill="#D7B353"/>
<path d="M99.6512 10.0025C99.6512 11.6392 98.655 12.0423 97.6956 12.0423H96.603V8.00317H97.5922C98.6463 8.00317 99.6512 8.33053 99.6512 10.0025ZM97.3751 8.58044V11.4632H97.7516C98.3521 11.4632 98.8459 11.194 98.8459 10.0025C98.8459 8.81099 98.3206 8.58044 97.7288 8.58044H97.3751Z" fill="#D7B353"/>
<path d="M102.883 12.0423H102.116V8.00317H102.883V12.0423Z" fill="#D7B353"/>
<path d="M107.451 11.106H106.119L105.868 12.0423H105.079L106.329 8.00317H107.278L108.523 12.0423H107.705L107.451 11.106ZM107.299 10.5217L106.774 8.58572L106.262 10.5217H107.299Z" fill="#D7B353"/>
<path d="M116.841 10.7205C116.841 11.5336 116.324 12.1285 115.34 12.1285C114.356 12.1285 113.852 11.5495 113.852 10.7205V8.00317H114.619V10.6801C114.619 11.2468 114.847 11.5284 115.34 11.5284C115.834 11.5284 116.067 11.2468 116.067 10.6801V8.00317H116.841V10.7205Z" fill="#D7B353"/>
<path d="M122.438 12.0423H121.444L120.066 8.77403C120.134 9.31106 120.168 9.85184 120.169 10.3932V12.0423H119.469V8.00317H120.44L121.841 11.2767C121.774 10.8198 121.739 10.3587 121.736 9.89688V8.00317H122.436L122.438 12.0423Z" fill="#D7B353"/>
<path d="M125.896 12.0423H125.127V8.00317H125.896V12.0423Z" fill="#D7B353"/>
<path d="M130.224 12.0423H129.312L128.086 8.00317H128.911L129.786 11.3576L130.641 8.00317H131.425L130.224 12.0423Z" fill="#D7B353"/>
<path d="M135.862 8.57516H134.379V9.70329H135.669V10.277H134.379V11.4632H135.967V12.0423H133.617V8.00317H135.949L135.862 8.57516Z" fill="#D7B353"/>
<path d="M139.696 10.4231H139.208V12.0423H138.441V8.00317H139.638C140.689 8.00317 141.231 8.3886 141.231 9.18938C141.231 9.73849 140.964 10.0694 140.417 10.2823L141.468 12.0423H140.592L139.696 10.4231ZM139.208 9.86696H139.685C140.162 9.86696 140.43 9.67513 140.43 9.18938C140.43 8.75115 140.179 8.56284 139.621 8.56284H139.208V9.86696Z" fill="#D7B353"/>
<path d="M146.177 8.41141L145.801 8.84964C145.554 8.6248 145.233 8.49948 144.899 8.49764C144.539 8.49764 144.276 8.66132 144.276 8.97811C144.276 9.2949 144.434 9.39874 145.102 9.60818C145.803 9.83169 146.295 10.1238 146.295 10.8841C146.295 11.6092 145.731 12.1161 144.771 12.1161C144.505 12.125 144.24 12.0804 143.991 11.9849C143.742 11.8894 143.514 11.7449 143.322 11.56L143.717 11.1165C143.998 11.3823 144.367 11.5325 144.752 11.5371C145.183 11.5371 145.491 11.3259 145.491 10.9352C145.491 10.5955 145.316 10.4442 144.694 10.2506C143.852 9.98833 143.485 9.64865 143.485 9.03443C143.485 8.36213 144.061 7.91862 144.852 7.91862C145.095 7.90683 145.337 7.9444 145.565 8.02908C145.792 8.11376 146.001 8.2438 146.177 8.41141Z" fill="#D7B353"/>
<path d="M149.466 12.0423H148.699V8.00317H149.466V12.0423Z" fill="#D7B353"/>
<path d="M154.657 8.61564H153.606V12.0423H152.834V8.61564H151.752V8.00317H154.729L154.657 8.61564Z" fill="#D7B353"/>
<path d="M158.572 10.5111V12.0423H157.793V10.5164L156.502 8.00317H157.351L158.2 9.87928L159.048 8.00317H159.864L158.572 10.5111Z" fill="#D7B353"/>
<path d="M167.77 8.61564H166.72V12.0423H165.948V8.61564H164.869V8.00317H167.846L167.77 8.61564Z" fill="#D7B353"/>
<path d="M172.351 8.57516H170.868V9.70329H172.158V10.277H170.868V11.4632H172.456V12.0423H170.099V8.00317H172.431L172.351 8.57516Z" fill="#D7B353"/>
<path d="M177.738 12.0423H176.882L176.08 10.3879L175.287 12.0423H174.466L175.63 9.8916L174.558 8.00317H175.415L176.094 9.39882L176.805 8.00317H177.624L176.549 9.86168L177.738 12.0423Z" fill="#D7B353"/>
<path d="M181.822 11.106H180.49L180.24 12.0423H179.443L180.693 8.00317H181.642L182.887 12.0423H182.073L181.822 11.106ZM181.672 10.5217L181.147 8.58572L180.635 10.5217H181.672Z" fill="#D7B353"/>
<path d="M187.565 8.41158L187.192 8.84981C186.945 8.62455 186.624 8.49916 186.291 8.49782C185.93 8.49782 185.669 8.6615 185.669 8.97829C185.669 9.29508 185.825 9.39892 186.494 9.60835C187.194 9.83187 187.686 10.124 187.686 10.8843C187.686 11.6094 187.122 12.1163 186.163 12.1163C185.897 12.1251 185.632 12.0805 185.383 11.985C185.134 11.8895 184.907 11.7451 184.715 11.5601L185.111 11.1166C185.39 11.382 185.758 11.5321 186.142 11.5373C186.572 11.5373 186.881 11.3261 186.881 10.9354C186.881 10.5957 186.706 10.4443 186.084 10.2507C185.24 9.9885 184.874 9.64883 184.874 9.03461C184.874 8.3623 185.45 7.9188 186.24 7.9188C186.482 7.90721 186.725 7.94487 186.952 8.02954C187.18 8.11421 187.389 8.24414 187.565 8.41158Z" fill="#D7B353"/>
<path d="M27.7766 34.4328C27.6985 34.4324 27.6235 34.4019 27.5671 34.3475C27.5108 34.2932 27.4773 34.2191 27.4737 34.1406C27.3687 31.5588 27.3232 29.0139 27.3389 26.5728C27.3396 26.5018 27.365 26.4332 27.4107 26.3789C27.4565 26.3247 27.5196 26.2883 27.5893 26.2759C27.6589 26.2636 27.7306 26.2762 27.792 26.3114C27.8534 26.3467 27.9006 26.4024 27.9254 26.469C28.2036 27.1984 28.6542 27.8488 29.2383 28.3639C29.8225 28.879 30.5226 29.2435 31.2783 29.4257C31.9643 29.5759 32.6742 29.5795 33.3617 29.4363C34.2131 29.2661 35.0009 28.8622 35.6378 28.2694L34.3527 26.9231C33.886 27.3207 33.3049 27.5575 32.6945 27.5986C32.0841 27.6398 31.4767 27.4832 30.9614 27.1519C30.4445 26.8279 30.0374 26.3543 29.7936 25.7932C29.7721 25.7444 29.7638 25.6908 29.7694 25.6378C29.7751 25.5848 29.7945 25.5342 29.8257 25.4911C29.8569 25.4479 29.8988 25.4138 29.9472 25.3921C29.9957 25.3704 30.0489 25.3618 30.1017 25.3673C30.9369 25.4518 31.7475 25.5556 32.5669 25.6841V23.3732C31.8035 23.4912 31.0366 23.5915 30.2908 23.6707C30.2344 23.6769 30.1773 23.6671 30.1262 23.6423C30.0751 23.6175 30.0319 23.5788 30.0016 23.5305C29.9713 23.4823 29.9551 23.4264 29.9548 23.3694C29.9546 23.3123 29.9703 23.2563 30.0002 23.2078C30.2189 22.8423 30.514 22.5289 30.8651 22.2891C31.2161 22.0494 31.6147 21.8891 32.0333 21.8194C32.452 21.7496 32.8807 21.772 33.2899 21.885C33.6991 21.998 34.0791 22.1989 34.4035 22.4739L35.6816 21.1047C35.0285 20.5098 34.2275 20.1036 33.3635 19.929C32.6758 19.786 31.9657 19.7908 31.28 19.9431C30.5601 20.1165 29.8903 20.4564 29.3241 20.9358C28.7578 21.4152 28.3107 22.0208 28.0182 22.7045C27.9905 22.7698 27.9408 22.8234 27.8779 22.8558C27.815 22.8883 27.7428 22.8976 27.6738 22.8821C27.6048 22.8666 27.5433 22.8274 27.5 22.7712C27.4568 22.7149 27.4345 22.6453 27.437 22.5742C27.612 17.9068 27.9727 14.9695 28.1093 13.998H25.1626C25.301 14.9695 25.6686 17.9068 25.8367 22.5742C25.8388 22.6454 25.8162 22.7151 25.7727 22.7713C25.7293 22.8275 25.6677 22.8667 25.5986 22.8822C25.5289 22.8996 25.4554 22.8915 25.3912 22.8592C25.327 22.827 25.2764 22.7727 25.2484 22.7062C24.956 22.0226 24.5089 21.4169 23.9426 20.9375C23.3764 20.4582 22.7066 20.1183 21.9867 19.9449C21.3009 19.7925 20.5909 19.7877 19.9032 19.9308C19.0394 20.1061 18.2386 20.5122 17.5851 21.1064L18.8632 22.4757C19.1878 22.2007 19.5678 21.9997 19.9772 21.8867C20.3865 21.7737 20.8154 21.7513 21.2342 21.8211C21.6529 21.8908 22.0517 22.0511 22.4029 22.2908C22.754 22.5305 23.0493 22.844 23.2683 23.2096C23.2981 23.2581 23.3138 23.3141 23.3136 23.3711C23.3133 23.4282 23.2971 23.484 23.2668 23.5323C23.2365 23.5806 23.1933 23.6193 23.1422 23.6441C23.0911 23.6688 23.034 23.6787 22.9776 23.6724C22.2248 23.5932 21.4579 23.4964 20.7015 23.375V25.677C21.5227 25.5485 22.3316 25.4447 23.1667 25.3602C23.2201 25.355 23.2739 25.364 23.3227 25.3863C23.3715 25.4087 23.4136 25.4436 23.4447 25.4875C23.4758 25.5314 23.4948 25.5828 23.4997 25.6365C23.5047 25.6902 23.4955 25.7442 23.4731 25.7932C23.2285 26.3608 22.8166 26.8393 22.293 27.1642C21.7775 27.495 21.1702 27.6513 20.56 27.6101C19.9497 27.5689 19.3686 27.3325 18.9017 26.9354L17.6184 28.2818C18.2553 28.8745 19.0431 29.2784 19.8944 29.4486C20.5814 29.5919 21.2907 29.5883 21.9761 29.438C22.7318 29.2558 23.4319 28.8914 24.0161 28.3762C24.6002 27.8611 25.0508 27.2107 25.329 26.4813C25.3546 26.4155 25.4021 26.3605 25.4634 26.3259C25.5247 26.2912 25.5961 26.279 25.6654 26.2912C25.7347 26.3034 25.7976 26.3394 25.8435 26.393C25.8894 26.4466 25.9155 26.5145 25.9172 26.5852C25.9295 28.7693 25.8945 31.0343 25.8122 33.3135C25.8107 33.3534 25.8014 33.3927 25.7848 33.4291C25.7682 33.4655 25.7446 33.4982 25.7154 33.5254C25.6863 33.5526 25.652 33.5738 25.6147 33.5877C25.5774 33.6016 25.5377 33.608 25.4979 33.6065C25.4581 33.605 25.4191 33.5956 25.3829 33.5789C25.3467 33.5623 25.3141 33.5386 25.2871 33.5092C25.26 33.4799 25.239 33.4455 25.2251 33.408C25.2113 33.3705 25.2049 33.3306 25.2064 33.2906C25.2729 31.4462 25.308 29.6105 25.3132 27.8207C24.5534 28.924 23.4148 29.7062 22.1162 30.0171C21.3491 30.187 20.5549 30.1918 19.7859 30.0312C18.7521 29.8266 17.8017 29.3189 17.0546 28.5721C16.9764 28.4974 16.9307 28.3947 16.9274 28.2863C16.9242 28.1778 16.9636 28.0725 17.0371 27.9931L18.5953 26.3599C18.6318 26.3207 18.6757 26.2892 18.7243 26.2671C18.773 26.2451 18.8256 26.2329 18.8789 26.2314C18.9889 26.2297 19.0951 26.2714 19.1748 26.3476C19.5425 26.7038 20.0186 26.9255 20.5267 26.9769C21.0348 27.0283 21.5453 26.9064 21.9761 26.6309C22.2328 26.4715 22.4573 26.2649 22.638 26.022C21.9026 26.1065 21.1813 26.198 20.4477 26.3247C20.4044 26.3316 20.3602 26.3289 20.3181 26.3169C20.2759 26.305 20.2369 26.284 20.2036 26.2554C20.1703 26.2268 20.1436 26.1912 20.1253 26.1512C20.1069 26.1113 20.0975 26.0678 20.0975 26.0237V23.016C20.0975 22.972 20.1069 22.9285 20.1253 22.8885C20.1436 22.8485 20.1703 22.813 20.2036 22.7843C20.2369 22.7557 20.2759 22.7347 20.3181 22.7228C20.3602 22.7108 20.4044 22.7082 20.4477 22.715C21.0675 22.8153 21.6908 22.9033 22.3071 22.979C22.206 22.8892 22.0976 22.8079 21.9831 22.7361C21.5528 22.4804 21.0535 22.3669 20.5556 22.4117C20.0577 22.4566 19.5863 22.6575 19.2081 22.9861C19.105 23.0747 18.9718 23.1198 18.8363 23.1119C18.7009 23.1041 18.5737 23.0438 18.4815 22.9438L17.0808 21.4408C16.9897 21.3421 16.9412 21.2111 16.946 21.0765C16.9478 21.0099 16.963 20.9444 16.9907 20.8839C17.0184 20.8234 17.058 20.7692 17.1071 20.7245C17.8588 20.0104 18.7948 19.5225 19.8086 19.3166C20.5789 19.1591 21.3734 19.1663 22.1407 19.3377C23.3594 19.6307 24.4377 20.343 25.1889 21.3511C24.9613 16.4126 24.5236 13.7604 24.5183 13.7322C24.5112 13.6884 24.5137 13.6435 24.5254 13.6006C24.5372 13.5578 24.5581 13.518 24.5866 13.4841C24.615 13.4503 24.6504 13.4232 24.6903 13.4046C24.7303 13.3861 24.7737 13.3766 24.8177 13.3767H28.4559C28.4999 13.3766 28.5434 13.3861 28.5833 13.4046C28.6233 13.4232 28.6587 13.4503 28.687 13.4841C28.7156 13.518 28.7364 13.5578 28.7482 13.6006C28.76 13.6435 28.7624 13.6884 28.7553 13.7322C28.7553 13.7604 28.3124 16.4126 28.0865 21.3511C28.837 20.3422 29.9156 19.6298 31.1347 19.3377C31.902 19.1663 32.6966 19.1591 33.4668 19.3166C34.4805 19.5229 35.4164 20.0107 36.1683 20.7245C36.2172 20.7693 36.2565 20.8236 36.2839 20.8841C36.3113 20.9446 36.3262 21.0101 36.3276 21.0765C36.3324 21.2111 36.284 21.3421 36.1928 21.4408L34.7922 22.9438C34.6999 23.0438 34.5728 23.1041 34.4373 23.1119C34.3019 23.1198 34.1687 23.0747 34.0656 22.9861C33.6873 22.6575 33.216 22.4566 32.7181 22.4117C32.2202 22.3669 31.7208 22.4804 31.2905 22.7361C31.1766 22.808 31.0688 22.8892 30.9684 22.979C31.5847 22.9033 32.2062 22.8153 32.826 22.715C32.8692 22.7082 32.9135 22.7108 32.9556 22.7228C32.9978 22.7347 33.0368 22.7557 33.0701 22.7843C33.1034 22.813 33.1301 22.8485 33.1484 22.8885C33.1667 22.9285 33.1762 22.972 33.1762 23.016V26.0308C33.1762 26.0748 33.1667 26.1183 33.1484 26.1583C33.1301 26.1983 33.1034 26.2338 33.0701 26.2624C33.0368 26.291 32.9978 26.312 32.9556 26.324C32.9135 26.336 32.8692 26.3386 32.826 26.3317C32.0924 26.2138 31.3693 26.1135 30.6357 26.029C30.8153 26.2717 31.0394 26.4778 31.2958 26.6362C31.7257 26.9141 32.2366 27.0375 32.7453 26.9864C33.2539 26.9352 33.7304 26.7126 34.0971 26.3546C34.1366 26.3164 34.1833 26.2865 34.2343 26.2666C34.2854 26.2467 34.3399 26.2371 34.3947 26.2385C34.4485 26.2401 34.5014 26.2524 34.5504 26.2748C34.5994 26.2971 34.6435 26.3291 34.6801 26.3687L36.2313 27.9966C36.3062 28.0757 36.3469 28.1813 36.3446 28.2905C36.3423 28.3996 36.2972 28.5034 36.2191 28.5792C35.4715 29.3253 34.5213 29.8328 33.4878 30.0382C32.7181 30.1988 31.9234 30.194 31.1557 30.0241C29.8543 29.71 28.7151 28.9217 27.9587 27.8118C27.9587 29.8604 28.0095 31.9759 28.0953 34.116C28.0969 34.156 28.0907 34.1959 28.077 34.2335C28.0632 34.2711 28.0423 34.3056 28.0153 34.335C27.9883 34.3644 27.9558 34.3882 27.9197 34.405C27.8835 34.4218 27.8444 34.4312 27.8046 34.4328H27.7766Z" fill="#D7B353"/>
<path d="M29.1438 42.8768C28.5902 42.8641 28.0399 42.7885 27.5032 42.6515C25.9275 42.2837 19.4354 40.6399 18.4795 40.3988L15.9968 41.7962C15.9622 41.8206 15.9229 41.8374 15.8814 41.8456C15.8399 41.8538 15.7972 41.8532 15.7559 41.8438C15.7147 41.8344 15.6759 41.8164 15.642 41.791C15.6081 41.7656 15.5798 41.7333 15.5591 41.6963C15.5383 41.6593 15.5255 41.6183 15.5215 41.576C15.5174 41.5336 15.5222 41.491 15.5356 41.4506C15.549 41.4103 15.5706 41.3732 15.5991 41.3418C15.6275 41.3104 15.6622 41.2853 15.7009 41.2682L18.2869 39.8109C18.3544 39.7724 18.4341 39.7616 18.5093 39.781C18.5845 39.8004 25.9608 41.6659 27.6398 42.0602C28.9021 42.3576 29.4361 42.259 29.5132 42.2362L30.7685 41.6871L39.6977 35.2685C39.8255 35.1576 41.1281 33.989 40.3333 33.021C39.4579 31.9545 38.5264 32.6902 38.4879 32.7218C38.4727 32.7346 38.4563 32.7458 38.4389 32.7553C36.8631 33.586 33.2704 35.485 32.8643 35.6698C32.9058 35.8605 32.9264 36.0553 32.9255 36.2506C32.9255 37.0249 32.7014 37.6145 32.262 38.0017C31.8229 38.3551 31.2634 38.5213 30.7037 38.4646H24.7334C24.6531 38.4646 24.5761 38.4325 24.5193 38.3754C24.4625 38.3183 24.4305 38.2409 24.4305 38.1601C24.4305 38.0794 24.4625 38.0019 24.5193 37.9448C24.5761 37.8877 24.6531 37.8556 24.7334 37.8556H30.7615C31.156 37.8958 31.5507 37.7824 31.8645 37.5388C32.1657 37.2713 32.318 36.8349 32.318 36.2488C32.3251 35.9855 32.2699 35.7244 32.1569 35.4867C31.7787 34.737 30.814 34.7282 30.8053 34.7282H26.3792C26.3357 34.7281 26.2927 34.7186 26.2531 34.7004C26.2136 34.6822 26.1784 34.6556 26.1499 34.6226C26.1288 34.598 24.0489 32.2185 21.9479 32.2185C19.8469 32.2185 17.8947 33.2516 17.7354 33.3361L12.3849 36.9176C12.3518 36.942 12.3142 36.9595 12.2743 36.9689C12.2343 36.9783 12.1929 36.9794 12.1525 36.9723C12.1121 36.9651 12.0735 36.9497 12.0392 36.9271C12.0049 36.9045 11.9755 36.8751 11.9528 36.8407C11.9301 36.8063 11.9146 36.7677 11.9073 36.7271C11.8999 36.6865 11.9008 36.6449 11.9099 36.6047C11.9191 36.5645 11.9362 36.5265 11.9604 36.4932C11.9846 36.4598 12.0152 36.4318 12.0505 36.4107L17.4167 32.8327L17.4378 32.8204C17.5271 32.7711 19.6333 31.6201 21.9531 31.6201C24.0874 31.6201 26.0623 33.6353 26.5158 34.1298H30.8053C30.8578 34.1298 32.0641 34.1421 32.6384 35.1136C32.943 34.9746 36.063 33.3326 38.1342 32.2361C38.3461 32.0847 39.6452 31.24 40.799 32.6444C41.7584 33.813 40.7482 35.1875 40.0794 35.7525L40.0601 35.7666L31.0959 42.2115C31.0783 42.2238 31.0595 42.2344 31.0399 42.2432L29.7355 42.8134L29.711 42.824C29.5256 42.8698 29.3344 42.8875 29.1438 42.8768Z" fill="white"/>
<path d="M77.4473 27.2481V34.7684C75.4671 35.7504 73.6778 36.1588 71.2371 36.1588C66.0319 36.1588 61.2312 31.743 61.2312 26.1006C61.2312 20.4582 66.0354 16.0442 71.2371 16.0442C73.0954 16.0236 74.9362 16.4073 76.6332 17.1689V21.8855L73.5972 18.832C72.9179 18.1509 72.2141 17.9045 71.2371 17.9045C67.5499 17.9045 65.9234 22.2657 65.9234 26.1094C65.9234 30.0359 67.0072 34.4516 71.2371 34.4516C72.6465 34.4516 73.2173 33.6596 73.4344 33.3059V27.2481L71.5085 25.3122H79.3714L77.4473 27.2481Z" fill="white"/>
<path d="M80.1611 35.7527L82.087 33.8167V25.4499L80.2172 23.5685L86.0999 21.5516V33.8167L88.0258 35.7527H80.1611ZM84.0917 20.0891C83.6945 20.0894 83.306 19.9713 82.9756 19.7497C82.6451 19.5281 82.3874 19.213 82.2352 18.8442C82.0829 18.4753 82.0429 18.0694 82.1202 17.6777C82.1974 17.286 82.3886 16.9261 82.6694 16.6436C82.9501 16.3611 83.308 16.1687 83.6976 16.0907C84.0872 16.0126 84.491 16.0525 84.8581 16.2053C85.2251 16.358 85.5389 16.6167 85.7596 16.9487C85.9803 17.2807 86.0982 17.6711 86.0982 18.0704C86.0878 18.6014 85.8729 19.1077 85.4986 19.4826C85.1244 19.8574 84.62 20.0717 84.0917 20.0803V20.0891Z" fill="white"/>
<path d="M101.88 23.8407L97.0004 35.7521H94.5318L89.6522 23.8407L87.7263 21.9048H95.9972L94.0976 23.8126L96.9181 31.3628L99.7387 23.8126L97.8408 21.9048H103.806L101.88 23.8407Z" fill="white"/>
<path d="M103.808 35.7527L105.734 33.8167V25.4499L103.862 23.5685L109.746 21.5516V33.8167L111.672 35.7527H103.808ZM107.74 20.0891C107.343 20.0894 106.954 19.9713 106.624 19.7497C106.293 19.5281 106.036 19.213 105.883 18.8442C105.731 18.4753 105.691 18.0694 105.768 17.6777C105.846 17.286 106.037 16.9261 106.318 16.6436C106.598 16.3611 106.956 16.1687 107.346 16.0907C107.735 16.0126 108.139 16.0525 108.506 16.2053C108.873 16.358 109.187 16.6167 109.408 16.9487C109.629 17.2807 109.746 17.6711 109.746 18.0704C109.736 18.6016 109.522 19.1081 109.147 19.483C108.773 19.858 108.268 20.0722 107.74 20.0803V20.0891Z" fill="white"/>
<path d="M122.599 35.7523V25.4496C122.599 24.9585 122.302 24.1138 121.353 24.1138C120.864 24.1138 120.187 24.4411 119.4 25.2577L118.072 26.5935V33.8093L119.998 35.7453H112.133L114.059 33.8093V25.4496L112.187 23.5682L118.072 21.5513V24.4957L119.238 23.3235C120.673 21.8786 122.039 21.5513 122.843 21.5513C125.175 21.5513 126.614 23.3288 126.614 25.2313V33.8164L128.54 35.7523H122.599Z" fill="white"/>
<path d="M140.687 24.2226C141.013 24.8492 141.23 25.3402 141.23 26.1023C141.23 28.802 137.758 30.2998 135.154 30.2998C134.921 30.3062 134.687 30.2974 134.454 30.2734V31.9629C134.454 31.9629 135.484 31.8538 135.855 31.8538C139.356 31.8538 141.902 33.5715 141.902 36.5969C141.902 39.8141 138.567 41.2044 135.149 41.2044C134.056 41.2161 132.965 41.1063 131.896 40.8771L128.235 40.0869L131.598 36.8151L133.305 39.2403C133.912 39.3771 134.529 39.4595 135.149 39.4867C137.21 39.4867 138.567 38.7229 138.567 37.5508C138.567 36.0794 137.047 35.4793 135.312 35.4793C134.133 35.5107 132.957 35.6017 131.788 35.7521V29.6468C130.187 28.9921 129.075 27.7654 129.075 26.1023C129.075 23.186 132.357 21.9048 135.149 21.9048H142.721L140.687 24.2226ZM135.154 23.3427C133.853 23.3427 133.094 24.733 133.094 26.0952C133.094 27.4574 133.853 28.8496 135.154 28.8496C136.455 28.8496 137.215 27.4592 137.215 26.0952C137.215 24.7313 136.457 23.3497 135.154 23.3497V23.3427Z" fill="white"/>
<path d="M158.449 35.7522H149.637L151.698 33.6808V18.5258L149.637 16.4543H158.449C163.556 16.4543 167.233 20.7328 167.233 26.1024C167.233 31.472 163.556 35.7522 158.449 35.7522ZM157.779 18.4431H155.711V33.7547H157.779C161.222 33.7547 162.551 29.9391 162.551 26.0954C162.551 22.2516 161.215 18.4431 157.779 18.4431Z" fill="white"/>
<path d="M177.162 35.7523V33.5718L174.721 35.3704C174.019 35.8742 173.173 36.1326 172.31 36.1061C170.441 36.1061 169.029 34.5802 169.029 32.155C169.029 28.8287 172.067 27.2746 175.103 27.2746H177.165V25.476C177.165 24.3866 176.703 23.269 175.429 23.269C174.425 23.269 173.613 23.7583 173.016 24.325L170.25 26.9649V22.8325C171.985 21.8786 173.639 21.5513 175.646 21.5513C178.521 21.5513 181.178 22.9962 181.178 25.476V33.8164L183.104 35.7523H177.162ZM177.162 28.8568H175.779C173.879 28.8568 172.904 29.7826 172.904 31.7449C172.904 32.8907 173.501 33.5982 174.259 33.5982C174.681 33.5475 175.083 33.3881 175.425 33.1353L177.162 31.854V28.8568Z" fill="white"/>
<path d="M196.09 23.8407L189.771 39.2949L191.669 41.2044H184.972L187.63 39.2685L189.066 35.7257L183.988 23.8407L182.062 21.9048H190.062L188.164 23.8126L191.14 30.6764L193.933 23.8126L192.035 21.9048H198L196.09 23.8407Z" fill="white"/>
<path d="M67.4903 49.2004C65.0497 49.2004 62.9802 47.4774 62.9802 44.8603C62.9802 42.2433 65.0497 40.5203 67.4903 40.5203C69.931 40.5203 72.004 42.2433 72.004 44.8603C72.004 47.4774 69.9327 49.2004 67.4903 49.2004ZM67.4903 41.4566C66.0354 41.4566 65.7763 43.3098 65.7763 44.8533C65.7763 46.3968 66.0354 48.2517 67.4903 48.2517C68.9453 48.2517 69.2061 46.3985 69.2061 44.8533C69.2061 43.308 68.947 41.4654 67.4903 41.4654V41.4566Z" fill="#D7B353"/>
<path d="M74.0104 46.1308C75.9188 45.7242 77.0183 44.5046 77.0183 43.3148C77.0183 42.3398 76.4528 41.7309 75.4986 41.7309C74.8193 41.7309 73.9947 42.1691 73.2821 42.771L72.7568 42.104C73.7425 41.2099 74.8105 40.5112 76.234 40.5112C78.1091 40.5112 79.4677 41.5672 79.4677 42.9998C79.4677 44.4324 78.2544 45.5025 76.8958 45.9917C78.4155 46.2346 79.8232 47.016 79.8232 48.6581C79.8232 51.1766 76.8152 52.2343 73.17 52.2343H72.8461V51.3244H73.1543C75.7805 51.3244 77.2617 50.3159 77.2617 48.82C77.2617 47.3891 75.6439 46.8365 74.0104 46.8365V46.1308Z" fill="#D7B353"/>
<path d="M82.5983 49.1542C82.3424 49.1542 82.0922 49.0779 81.8795 48.935C81.6667 48.7921 81.5009 48.589 81.4029 48.3513C81.305 48.1137 81.2794 47.8521 81.3293 47.5999C81.3792 47.3476 81.5025 47.1158 81.6834 46.9339C81.8644 46.752 82.0949 46.6282 82.3459 46.578C82.5969 46.5278 82.857 46.5535 83.0934 46.652C83.3298 46.7504 83.5319 46.9171 83.6741 47.131C83.8163 47.3449 83.8921 47.5964 83.8921 47.8536C83.8912 48.1982 83.7546 48.5285 83.5122 48.7722C83.2697 49.0159 82.9412 49.1533 82.5983 49.1542Z" fill="#D7B353"/>
<path d="M85.4293 48.9906L86.5779 47.8378V41.8874L85.4293 40.7329H90.1198L88.9712 41.8874V47.8378L90.1198 48.9906H85.4293Z" fill="#D7B353"/>
<path d="M95.7312 49.2004C93.2906 49.2004 91.2194 47.4774 91.2194 44.8603C91.2194 42.2433 93.2906 40.5203 95.7312 40.5203C98.1719 40.5203 100.243 42.2433 100.243 44.8603C100.243 47.4774 98.1736 49.2004 95.7312 49.2004ZM95.7312 41.4566C94.2763 41.4566 94.0172 43.3098 94.0172 44.8533C94.0172 46.3968 94.2763 48.2517 95.7312 48.2517C97.1862 48.2517 97.4453 46.3985 97.4453 44.8533C97.4453 43.308 97.1879 41.4654 95.7312 41.4654V41.4566Z" fill="#D7B353"/>
<path d="M102.719 49.1542C102.463 49.1542 102.213 49.0779 102 48.935C101.787 48.7921 101.621 48.589 101.523 48.3513C101.425 48.1137 101.4 47.8521 101.45 47.5999C101.5 47.3476 101.623 47.1158 101.804 46.9339C101.985 46.752 102.215 46.6282 102.466 46.578C102.717 46.5278 102.977 46.5535 103.214 46.652C103.45 46.7504 103.652 46.9171 103.794 47.131C103.937 47.3449 104.012 47.5964 104.012 47.8536C104.012 48.1982 103.875 48.5285 103.633 48.7722C103.39 49.0159 103.062 49.1533 102.719 49.1542Z" fill="#D7B353"/>
<path d="M105.485 48.9906V47.9998L108.607 45.2208C109.307 44.6031 109.739 43.936 109.739 43.1388C109.739 42.2782 109.141 41.8875 108.493 41.8875C107.782 41.8875 106.893 42.375 106.133 42.8959L105.607 42.3098C106.546 41.3999 108.017 40.5217 109.699 40.5217C111.299 40.5217 112.383 41.5619 112.383 42.6689C112.383 43.6756 111.882 44.3901 111.074 44.9762L107.53 47.3169H111.751L112.656 46.407V48.9906H105.485Z" fill="#D7B353"/>
<path d="M113.896 48.9906V47.9998L117.017 45.2208C117.718 44.6031 118.148 43.936 118.148 43.1388C118.148 42.2782 117.551 41.8875 116.904 41.8875C116.193 41.8875 115.303 42.375 114.544 42.8959L114.018 42.3098C114.957 41.3999 116.427 40.5217 118.11 40.5217C119.71 40.5217 120.794 41.5619 120.794 42.6689C120.794 43.6756 120.293 44.3901 119.484 44.9762L115.934 47.3169H120.155L121.06 46.407V48.9906H113.896Z" fill="#D7B353"/>
<path d="M26.8958 53.5825C12.4602 53.5825 0.729736 41.7821 0.729736 27.28C0.729736 12.778 12.4602 0.977539 26.8958 0.977539C41.3313 0.977539 53.0618 12.7692 53.0618 27.28C53.0618 41.7909 41.3225 53.5825 26.8958 53.5825ZM26.8958 2.26583C13.1746 2.26583 2.01134 13.4873 2.01134 27.28C2.01134 41.0728 13.1746 52.2925 26.8958 52.2925C40.617 52.2925 51.7785 41.0728 51.7785 27.28C51.7785 13.4873 40.617 2.26583 26.8958 2.26583Z" fill="white"/>
<path d="M26.8959 45.7316C23.2655 45.7316 19.7166 44.6494 16.6981 42.622C13.6795 40.5945 11.3268 37.7128 9.93753 34.3412C8.54824 30.9697 8.18473 27.2597 8.89299 23.6805C9.60124 20.1013 11.3494 16.8136 13.9165 14.2331C16.4836 11.6527 19.7543 9.89535 23.3149 9.1834C26.8755 8.47145 30.5662 8.83685 33.9203 10.2334C37.2743 11.6299 40.1411 13.9949 42.158 17.0292C44.175 20.0635 45.2515 23.6309 45.2515 27.2802C45.2441 32.1715 43.3078 36.8604 39.8671 40.3191C36.4263 43.7778 31.7618 45.7241 26.8959 45.7316ZM26.8959 9.38325C23.3746 9.38325 19.9323 10.4329 17.0045 12.3994C14.0766 14.366 11.7946 17.1611 10.4471 20.4313C9.09951 23.7016 8.74693 27.3001 9.4339 30.7717C10.1209 34.2434 11.8166 37.4323 14.3065 39.9353C16.7964 42.4382 19.9688 44.1427 23.4225 44.8333C26.8761 45.5239 30.456 45.1694 33.7092 43.8149C36.9625 42.4603 39.7431 40.1664 41.6995 37.2232C43.6558 34.2801 44.7 30.8199 44.7 27.2802C44.6944 22.5354 42.8169 17.9864 39.4792 14.6313C36.1414 11.2762 31.6161 9.38884 26.8959 9.38325Z" fill="#D7B353"/>
<path d="M26.8959 45.7316C23.2655 45.7316 19.7166 44.6494 16.6981 42.622C13.6795 40.5945 11.3268 37.7128 9.93753 34.3412C8.54824 30.9697 8.18473 27.2597 8.89299 23.6805C9.60124 20.1013 11.3494 16.8136 13.9165 14.2331C16.4836 11.6527 19.7543 9.89535 23.3149 9.1834C26.8755 8.47145 30.5662 8.83685 33.9203 10.2334C37.2743 11.6299 40.1411 13.9949 42.158 17.0292C44.175 20.0635 45.2515 23.6309 45.2515 27.2802C45.2441 32.1715 43.3078 36.8604 39.8671 40.3191C36.4263 43.7778 31.7618 45.7241 26.8959 45.7316ZM26.8959 9.38325C23.3746 9.38325 19.9323 10.4329 17.0045 12.3994C14.0766 14.366 11.7946 17.1611 10.4471 20.4313C9.09951 23.7016 8.74693 27.3001 9.4339 30.7717C10.1209 34.2434 11.8166 37.4323 14.3065 39.9353C16.7964 42.4382 19.9688 44.1427 23.4225 44.8333C26.8761 45.5239 30.456 45.1694 33.7092 43.8149C36.9625 42.4603 39.7431 40.1664 41.6995 37.2232C43.6558 34.2801 44.7 30.8199 44.7 27.2802C44.6944 22.5354 42.8169 17.9864 39.4792 14.6313C36.1414 11.2762 31.6161 9.38884 26.8959 9.38325Z" fill="#D7B353"/>
</svg>