<svg width="117" height="117" viewBox="0 0 117 117" fill="none" xmlns="http://www.w3.org/2000/svg">
<circle cx="58.3598" cy="58.4601" r="56.564" fill="white"/>
<circle cx="58.3598" cy="58.4601" r="40.4028" fill="#451A64"/>
<path d="M60.4174 74.4449C60.2429 74.4441 60.0753 74.3763 59.9494 74.2555C59.8235 74.1346 59.7488 73.9701 59.7408 73.7957C59.5061 68.0583 59.4044 62.403 59.4396 56.9784C59.4412 56.8205 59.4979 56.6681 59.6001 56.5475C59.7022 56.427 59.8433 56.3461 59.9989 56.3187C60.1544 56.2913 60.3147 56.3192 60.4518 56.3975C60.589 56.4759 60.6944 56.5998 60.7498 56.7477C61.3711 58.3686 62.3777 59.8138 63.6826 60.9586C64.9875 62.1033 66.5514 62.9132 68.2394 63.3182C69.772 63.652 71.3576 63.66 72.8935 63.3416C74.7952 62.9635 76.555 62.066 77.9778 60.7487L75.1071 57.7567C74.0646 58.6403 72.7664 59.1665 71.403 59.258C70.0395 59.3495 68.6826 59.0015 67.5315 58.2652C66.3769 57.5453 65.4675 56.4927 64.9229 55.2459C64.875 55.1375 64.8564 55.0184 64.869 54.9006C64.8815 54.7828 64.9249 54.6703 64.9945 54.5745C65.0642 54.4787 65.1579 54.4028 65.2661 54.3545C65.3743 54.3063 65.4933 54.2873 65.6112 54.2994C67.4767 54.4871 69.2875 54.7179 71.1179 55.0034V49.8683C69.4127 50.1303 67.6997 50.3532 66.0336 50.5292C65.9075 50.5431 65.7801 50.5212 65.6659 50.4661C65.5517 50.4111 65.4552 50.325 65.3875 50.2178C65.3199 50.1106 65.2837 49.9865 65.2831 49.8597C65.2825 49.7329 65.3176 49.6085 65.3843 49.5006C65.8731 48.6884 66.5322 47.9918 67.3164 47.4591C68.1005 46.9264 68.9909 46.5703 69.9261 46.4152C70.8612 46.2602 71.8189 46.3099 72.733 46.561C73.6471 46.8122 74.4958 47.2587 75.2205 47.8697L78.0755 44.827C76.6166 43.5051 74.8274 42.6024 72.8974 42.2144C71.3612 41.8966 69.7751 41.9072 68.2433 42.2457C66.6351 42.6311 65.139 43.3864 63.8741 44.4517C62.6091 45.517 61.6103 46.8628 60.9571 48.3821C60.8951 48.5273 60.7842 48.6463 60.6437 48.7184C60.5031 48.7905 60.3418 48.8112 60.1876 48.7768C60.0335 48.7425 59.8962 48.6552 59.7996 48.5303C59.703 48.4053 59.6531 48.2505 59.6587 48.0927C60.0498 37.7207 60.8554 31.1933 61.1605 29.0344H54.5783C54.8872 31.1933 55.7085 37.7207 56.084 48.0927C56.0887 48.2508 56.0382 48.4056 55.9411 48.5305C55.8441 48.6554 55.7065 48.7426 55.5521 48.7771C55.3965 48.8158 55.2322 48.7977 55.0888 48.726C54.9454 48.6543 54.8323 48.5337 54.7699 48.386C54.1167 46.8667 53.1179 45.5209 51.853 44.4556C50.5881 43.3903 49.092 42.635 47.4837 42.2496C45.9519 41.9111 44.3659 41.9005 42.8296 42.2184C40.9002 42.608 39.1114 43.5105 37.6515 44.8309L40.5065 47.8737C41.2316 47.2625 42.0806 46.816 42.9949 46.5648C43.9093 46.3137 44.8673 46.2639 45.8028 46.419C46.7383 46.574 47.629 46.9302 48.4135 47.4629C49.1979 47.9956 49.8575 48.6922 50.3466 49.5045C50.4133 49.6124 50.4484 49.7368 50.4478 49.8636C50.4473 49.9904 50.4111 50.1145 50.3434 50.2217C50.2757 50.3289 50.1793 50.415 50.065 50.4701C49.9508 50.5251 49.8234 50.547 49.6974 50.5331C48.0156 50.3571 46.3026 50.142 44.6131 49.8722V54.9878C46.4473 54.7022 48.2542 54.4715 50.1197 54.2838C50.239 54.2721 50.3592 54.2921 50.4682 54.3417C50.5772 54.3914 50.6712 54.469 50.7406 54.5666C50.8101 54.6642 50.8525 54.7784 50.8637 54.8977C50.8748 55.017 50.8543 55.1371 50.8042 55.2459C50.2578 56.5072 49.3378 57.5705 48.1682 58.2925C47.0166 59.0277 45.6599 59.3749 44.2968 59.2834C42.9336 59.192 41.6356 58.6666 40.5926 57.7841L37.7258 60.776C39.1486 62.0933 40.9084 62.9908 42.8101 63.369C44.3446 63.6874 45.929 63.6794 47.4603 63.3456C49.1482 62.9406 50.7122 62.1307 52.0171 60.9859C53.322 59.8412 54.3285 58.3959 54.9498 56.7751C55.007 56.6287 55.1131 56.5067 55.2501 56.4297C55.3871 56.3527 55.5465 56.3254 55.7013 56.3526C55.8561 56.3798 55.9967 56.4597 56.0992 56.5788C56.2018 56.6978 56.26 56.8487 56.2639 57.0058C56.2913 61.8594 56.2131 66.8928 56.0292 71.9576C56.0259 72.0464 56.0051 72.1337 55.968 72.2146C55.9309 72.2954 55.8783 72.3681 55.8131 72.4285C55.7479 72.489 55.6715 72.536 55.5881 72.567C55.5047 72.5979 55.4161 72.6121 55.3272 72.6087C55.2384 72.6054 55.1511 72.5846 55.0702 72.5475C54.9894 72.5104 54.9167 72.4578 54.8562 72.3926C54.7958 72.3274 54.7487 72.2509 54.7178 72.1676C54.6869 72.0842 54.6727 71.9956 54.676 71.9067C54.8247 67.808 54.9029 63.7288 54.9146 59.7513C53.2173 62.2032 50.674 63.9415 47.7731 64.6323C46.0596 65.0098 44.2856 65.0204 42.5676 64.6636C40.2583 64.209 38.1354 63.0809 36.4665 61.4213C36.2918 61.2552 36.1898 61.0269 36.1824 60.786C36.1751 60.5451 36.2631 60.311 36.4274 60.1346L39.9081 56.5052C39.9897 56.4182 40.0876 56.3481 40.1964 56.2991C40.3051 56.2501 40.4225 56.2231 40.5417 56.2197C40.7873 56.216 41.0246 56.3086 41.2027 56.4778C42.0239 57.2695 43.0875 57.7621 44.2224 57.8763C45.3574 57.9905 46.4978 57.7197 47.4603 57.1075C48.0335 56.7531 48.5351 56.2941 48.9386 55.7543C47.296 55.942 45.6847 56.1454 44.046 56.427C43.9493 56.4423 43.8506 56.4364 43.7564 56.4098C43.6623 56.3832 43.575 56.3365 43.5007 56.2729C43.4263 56.2094 43.3666 56.1304 43.3257 56.0416C43.2848 55.9527 43.2637 55.856 43.2638 55.7582V49.0743C43.2637 48.9765 43.2848 48.8798 43.3257 48.791C43.3666 48.7021 43.4263 48.6232 43.5007 48.5596C43.575 48.496 43.6623 48.4493 43.7564 48.4227C43.8506 48.3961 43.9493 48.3903 44.046 48.4056C45.4305 48.6285 46.8228 48.824 48.1994 48.9922C47.9736 48.7925 47.7316 48.612 47.4759 48.4525C46.5147 47.8841 45.3992 47.6319 44.287 47.7316C43.1747 47.8312 42.1219 48.2776 41.277 49.0078C41.0467 49.2048 40.7491 49.3051 40.4466 49.2876C40.144 49.2701 39.86 49.1362 39.6539 48.914L36.5251 45.574C36.3215 45.3546 36.2132 45.0635 36.224 44.7644C36.228 44.6165 36.2619 44.4709 36.3238 44.3365C36.3856 44.202 36.4741 44.0815 36.5838 43.9822C38.263 42.3952 40.3538 41.3112 42.6185 40.8534C44.339 40.5035 46.1139 40.5195 47.8279 40.9004C50.5501 41.5516 52.9588 43.1344 54.6369 45.3745C54.1285 34.4003 53.1508 28.5064 53.139 28.4438C53.1232 28.3464 53.1286 28.2466 53.1549 28.1514C53.1812 28.0562 53.2278 27.9679 53.2916 27.8924C53.355 27.8173 53.434 27.7571 53.5232 27.7159C53.6124 27.6746 53.7096 27.6535 53.8078 27.6538H61.9349C62.0331 27.6535 62.1302 27.6746 62.2194 27.7159C62.3086 27.7571 62.3877 27.8173 62.4511 27.8924C62.5148 27.9679 62.5614 28.0562 62.5878 28.1514C62.6141 28.2466 62.6195 28.3464 62.6036 28.4438C62.6036 28.5064 61.6142 34.4003 61.1096 45.3745C62.7862 43.1327 65.1956 41.5495 67.9187 40.9004C69.6326 40.5195 71.4076 40.5035 73.1281 40.8534C75.3925 41.312 77.4831 42.3959 79.1628 43.9822C79.272 44.0817 79.3598 44.2024 79.421 44.3368C79.4822 44.4713 79.5154 44.6167 79.5187 44.7644C79.5294 45.0635 79.4211 45.3546 79.2175 45.574L76.0887 48.914C75.8827 49.1362 75.5986 49.2701 75.2961 49.2876C74.9936 49.3051 74.696 49.2048 74.4657 49.0078C73.6208 48.2776 72.5679 47.8312 71.4557 47.7316C70.3434 47.6319 69.228 47.8841 68.2668 48.4525C68.0123 48.6121 67.7716 48.7926 67.5471 48.9922C68.9238 48.824 70.3122 48.6285 71.6967 48.4056C71.7933 48.3903 71.8921 48.3961 71.9862 48.4227C72.0804 48.4493 72.1676 48.496 72.242 48.5596C72.3163 48.6232 72.376 48.7021 72.4169 48.791C72.4578 48.8798 72.479 48.9765 72.4789 49.0743V55.7739C72.479 55.8717 72.4578 55.9684 72.4169 56.0572C72.376 56.1461 72.3163 56.225 72.242 56.2886C72.1676 56.3522 72.0804 56.3989 71.9862 56.4254C71.8921 56.452 71.7933 56.4579 71.6967 56.4426C70.058 56.1806 68.4427 55.9577 66.804 55.77C67.2053 56.3094 67.7057 56.7673 68.2785 57.1192C69.239 57.7367 70.3802 58.011 71.5164 57.8974C72.6526 57.7838 73.7169 57.289 74.5361 56.4935C74.6244 56.4087 74.7286 56.3422 74.8427 56.2979C74.9568 56.2536 75.0786 56.2324 75.2009 56.2354C75.3211 56.239 75.4393 56.2664 75.5487 56.3161C75.6582 56.3658 75.7566 56.4367 75.8384 56.5248L79.3036 60.1424C79.4708 60.3182 79.5617 60.5529 79.5566 60.7954C79.5514 61.0378 79.4507 61.2685 79.2762 61.437C77.6062 63.095 75.4837 64.2229 73.1751 64.6792C71.4558 65.0361 69.6805 65.0254 67.9656 64.6479C65.0585 63.9499 62.5138 62.1982 60.8241 59.7318C60.8241 64.2842 60.9375 68.9852 61.1292 73.741C61.1329 73.8298 61.119 73.9186 61.0883 74.0021C61.0577 74.0856 61.0108 74.1622 60.9505 74.2276C60.8902 74.293 60.8176 74.3458 60.7369 74.3831C60.6561 74.4204 60.5688 74.4414 60.48 74.4449H60.4174Z" fill="#D7B353"/>
<path d="M63.4717 93.2093C62.2352 93.1812 61.0058 93.0132 59.8071 92.7087C56.2872 91.8913 41.7852 88.2384 39.6498 87.7026L34.104 90.8079C34.0267 90.8622 33.9389 90.8996 33.8462 90.9178C33.7535 90.936 33.658 90.9346 33.5659 90.9137C33.4738 90.8928 33.3871 90.8529 33.3113 90.7964C33.2356 90.74 33.1725 90.6683 33.1262 90.586C33.0798 90.5037 33.0512 90.4126 33.0422 90.3186C33.0331 90.2246 33.0439 90.1297 33.0737 90.0401C33.1036 89.9505 33.1519 89.8681 33.2155 89.7983C33.2791 89.7284 33.3566 89.6727 33.4431 89.6346L39.2196 86.3963C39.3703 86.3106 39.5484 86.2868 39.7163 86.3299C39.8845 86.3729 56.3615 90.5185 60.1122 91.3946C62.932 92.0556 64.1248 91.8365 64.2969 91.7857L67.1011 90.5655L87.0472 76.3021C87.3327 76.0557 90.2425 73.4588 88.4669 71.3077C86.5114 68.9377 84.4307 70.5725 84.3447 70.6429C84.3107 70.6711 84.274 70.696 84.2352 70.7172C80.7153 72.5632 72.6899 76.7831 71.7826 77.1938C71.8754 77.6177 71.9213 78.0505 71.9194 78.4844C71.9194 80.2052 71.4188 81.5154 70.4372 82.3758C69.4563 83.1612 68.2066 83.5305 66.9564 83.4044H53.6199C53.4405 83.4044 53.2684 83.3332 53.1415 83.2063C53.0146 83.0794 52.9433 82.9073 52.9433 82.7278C52.9433 82.5484 53.0146 82.3763 53.1415 82.2494C53.2684 82.1225 53.4405 82.0512 53.6199 82.0512H67.0855C67.9666 82.1404 68.8484 81.8885 69.5494 81.3473C70.2221 80.7528 70.5623 79.7829 70.5623 78.4805C70.5782 77.8955 70.4548 77.3151 70.2025 76.787C69.3577 75.121 67.2028 75.1014 67.1832 75.1014H57.2962C57.199 75.1011 57.103 75.0801 57.0146 75.0396C56.9263 74.9991 56.8476 74.9402 56.7839 74.8667C56.737 74.812 52.0907 69.5243 47.3975 69.5243C42.7043 69.5243 38.3436 71.8201 37.9877 72.0078L26.0357 79.9667C25.9619 80.021 25.8778 80.0598 25.7885 80.0807C25.6993 80.1016 25.6067 80.1041 25.5165 80.0882C25.4262 80.0722 25.3401 80.0381 25.2635 79.9878C25.1868 79.9376 25.1212 79.8723 25.0705 79.7959C25.0198 79.7195 24.9852 79.6336 24.9688 79.5434C24.9523 79.4533 24.9543 79.3607 24.9747 79.2713C24.9951 79.182 25.0335 79.0977 25.0875 79.0236C25.1414 78.9495 25.2099 78.8871 25.2887 78.8403L37.2759 70.8893L37.3228 70.8619C37.5223 70.7524 42.2272 68.1946 47.4092 68.1946C52.1768 68.1946 56.5884 72.6727 57.6013 73.7717H67.1832C67.3006 73.7717 69.9952 73.799 71.278 75.9579C71.9586 75.6489 78.928 72 83.5547 69.5634C84.0279 69.2271 86.9298 67.3498 89.5072 70.4708C91.6504 73.0677 89.3938 76.1222 87.8998 77.3776L87.8568 77.4089L67.8325 91.7309C67.793 91.7582 67.7511 91.7818 67.7073 91.8013L64.7936 93.0685L64.7389 93.092C64.3246 93.1937 63.8976 93.2332 63.4717 93.2093Z" fill="white"/>
<path d="M58.4498 117C26.2037 117 0 90.7767 0 58.5501C0 26.3236 26.2037 0.100342 58.4498 0.100342C90.6959 0.100342 116.9 26.304 116.9 58.5501C116.9 90.7963 90.6764 117 58.4498 117ZM58.4498 2.96319C27.7993 2.96319 2.86285 27.8997 2.86285 58.5501C2.86285 89.2006 27.7993 114.133 58.4498 114.133C89.1003 114.133 114.033 89.2006 114.033 58.5501C114.033 27.8997 89.1003 2.96319 58.4498 2.96319V2.96319Z" fill="#451A64"/>
<path d="M58.45 99.553C50.3404 99.553 42.4129 97.1482 35.6701 92.6427C28.9272 88.1373 23.6717 81.7335 20.5683 74.2412C17.4649 66.7489 16.6529 58.5046 18.235 50.5509C19.8171 42.5971 23.7223 35.2911 29.4566 29.5567C35.191 23.8224 42.497 19.9172 50.4508 18.3351C58.4045 16.753 66.6488 17.565 74.1411 20.6684C81.6334 23.7718 88.0372 29.0273 92.5426 35.7702C97.0481 42.513 99.4529 50.4405 99.4529 58.5501C99.4363 69.4197 95.1111 79.8393 87.4251 87.5252C79.7392 95.2112 69.3196 99.5364 58.45 99.553ZM58.45 18.7792C50.5841 18.7792 42.8948 21.1117 36.3545 25.4818C29.8142 29.8519 24.7167 36.0633 21.7065 43.3305C18.6963 50.5976 17.9087 58.5942 19.4433 66.309C20.9779 74.0238 24.7657 81.1103 30.3278 86.6724C35.8898 92.2344 42.9763 96.0223 50.6911 97.5568C58.4059 99.0914 66.4025 98.3038 73.6697 95.2936C80.9369 92.2835 87.1482 87.1859 91.5183 80.6456C95.8884 74.1054 98.2209 66.4161 98.2209 58.5501C98.2085 48.006 94.0144 37.8974 86.5586 30.4416C79.1028 22.9858 68.9941 18.7916 58.45 18.7792V18.7792Z" fill="#D7B353"/>
<path d="M58.45 99.553C50.3404 99.553 42.4129 97.1482 35.6701 92.6427C28.9272 88.1373 23.6717 81.7335 20.5683 74.2412C17.4649 66.7489 16.6529 58.5046 18.235 50.5509C19.8171 42.5971 23.7223 35.2911 29.4566 29.5567C35.191 23.8224 42.497 19.9172 50.4508 18.3351C58.4045 16.753 66.6488 17.565 74.1411 20.6684C81.6334 23.7718 88.0372 29.0273 92.5426 35.7702C97.0481 42.513 99.4529 50.4405 99.4529 58.5501C99.4363 69.4197 95.1111 79.8393 87.4251 87.5252C79.7392 95.2112 69.3196 99.5364 58.45 99.553ZM58.45 18.7792C50.5841 18.7792 42.8948 21.1117 36.3545 25.4818C29.8142 29.8519 24.7167 36.0633 21.7065 43.3305C18.6963 50.5976 17.9087 58.5942 19.4433 66.309C20.9779 74.0238 24.7657 81.1103 30.3278 86.6724C35.8898 92.2344 42.9763 96.0223 50.6911 97.5568C58.4059 99.0914 66.4025 98.3038 73.6697 95.2936C80.9369 92.2835 87.1482 87.1859 91.5183 80.6456C95.8884 74.1054 98.2209 66.4161 98.2209 58.5501C98.2085 48.006 94.0144 37.8974 86.5586 30.4416C79.1028 22.9858 68.9941 18.7916 58.45 18.7792V18.7792Z" fill="#D7B353"/>
</svg>
