<svg width="119" height="119" viewBox="0 0 119 119" fill="none" xmlns="http://www.w3.org/2000/svg">
<path d="M116 59.438C116 90.6421 90.7041 115.938 59.5 115.938C28.2959 115.938 3 90.6421 3 59.438C3 28.2339 28.2959 2.93799 59.5 2.93799C90.7041 2.93799 116 28.2339 116 59.438Z" fill="white"/>
<path d="M101.046 59.523C101.046 82.4555 82.4553 101.046 59.5227 101.046C36.5902 101.046 17.9998 82.4555 17.9998 59.523C17.9998 36.5905 36.5902 18 59.5227 18C82.4553 18 101.046 36.5905 101.046 59.523Z" fill="#451A64"/>
<path d="M59.4998 102C36.0529 102 16.9998 82.9326 16.9998 59.5C16.9998 36.0674 36.0529 17 59.4998 17C82.9466 17 102 36.0532 102 59.5C102 82.9468 82.9323 102 59.4998 102ZM59.4998 19.0816C37.2132 19.0816 19.0814 37.2134 19.0814 59.5C19.0814 81.7866 37.2132 99.9155 59.4998 99.9155C81.7863 99.9155 99.9153 81.7866 99.9153 59.5C99.9153 37.2134 81.7863 19.0816 59.4998 19.0816Z" fill="#D7B353"/>
<path d="M59.4998 118C27.2259 118 0.999756 91.7543 0.999756 59.5C0.999756 27.2457 27.2259 1 59.4998 1C91.7736 1 118 27.2262 118 59.5C118 91.7738 91.754 118 59.4998 118ZM59.4998 3.86531C28.823 3.86531 3.86506 28.8232 3.86506 59.5C3.86506 90.1768 28.823 115.131 59.4998 115.131C90.1765 115.131 115.131 90.1768 115.131 59.5C115.131 28.8232 90.1765 3.86531 59.4998 3.86531Z" fill="#451A64" stroke="#451A64" stroke-width="0.5"/>
<path d="M46.0166 68.7655L46 85.6966L59.7935 71.9297L73.8308 86.0001L73.8474 69.069L59.8101 54.9985L46.0166 68.7655ZM72.9057 69.4535L72.8912 83.7212L59.7946 70.5979L46.9439 83.4231L46.9583 69.1565L59.8101 56.3314L72.9057 69.4535Z" fill="white" stroke="white"/>
<path d="M46.0398 44.7658L46.0232 61.6969L59.8167 47.9311L73.8551 62.0016L73.8717 45.0705L59.8333 31L46.0398 44.7658ZM72.9288 45.4549L72.9156 59.7215L59.8178 46.5994L46.9671 59.4246L46.9815 45.1569L59.8322 32.3295L72.9288 45.4549Z" fill="white" stroke="white"/>
</svg>